<?xml version="1.0" encoding="utf-8"?>
<!-- Generator: Adobe Illustrator 23.1.0, SVG Export Plug-In . SVG Version: 6.00 Build 0)  -->
<svg version="1.1" id="Capa_1" xmlns="http://www.w3.org/2000/svg" xmlns:xlink="http://www.w3.org/1999/xlink" x="0px" y="0px"
	 viewBox="0 0 498.1 68" style="enable-background:new 0 0 498.1 68;" xml:space="preserve">
<style type="text/css">
	.st0{fill:#FFFFFF;}
</style>
<g>
	<g>
		<rect x="201.8" y="47.8" class="st0" width="2.2" height="2"/>
		<path class="st0" d="M191.2,52.9c-0.8-0.5-1.7-0.7-2.7-0.7c-1,0-1.9,0.2-2.7,0.7c-0.8,0.5-1.4,1.1-1.8,1.9
			c-0.4,0.8-0.6,1.8-0.6,2.9c0,1.1,0.2,2.1,0.6,2.9c0.4,0.8,1,1.5,1.8,1.9c0.8,0.5,1.7,0.7,2.7,0.7c1,0,1.9-0.2,2.7-0.7
			c0.8-0.5,1.3-1.1,1.8-1.9c0.4-0.8,0.6-1.8,0.6-2.9c0-1.1-0.2-2.1-0.6-2.9C192.6,54,192,53.4,191.2,52.9z M190.9,60.8
			c-0.6,0.7-1.4,1.1-2.4,1.1c-1,0-1.8-0.4-2.4-1.1c-0.6-0.7-0.9-1.7-0.9-3.1c0-1.3,0.3-2.3,0.9-3c0.6-0.7,1.4-1.1,2.4-1.1
			c1,0,1.8,0.4,2.4,1.1c0.6,0.7,0.9,1.7,0.9,3C191.8,59.1,191.5,60.1,190.9,60.8z"/>
		<path class="st0" d="M202,63.5c0,0.7-0.2,1.3-0.5,1.7c-0.3,0.4-0.8,0.6-1.5,0.7l-0.9,0.1l0.1,1.4l0.9-0.1c0.6,0,1.2-0.2,1.6-0.4
			c0.5-0.2,0.8-0.4,1.1-0.8c0.3-0.3,0.5-0.7,0.7-1.2c0.1-0.5,0.2-1,0.2-1.7V52.4H202V63.5z"/>
		<path class="st0" d="M181.7,61.7c-0.2,0.1-0.5,0.1-0.7,0.1c-0.8,0-1.4-0.2-1.7-0.6c-0.4-0.4-0.5-1.1-0.5-1.9v-5.4h3.4v-1.4h-3.4
			v-3.3H177v3.3h-2.1v1.4h2.1v5.6c0,1.2,0.3,2.2,0.9,2.9c0.6,0.7,1.6,1,2.8,1c0.3,0,0.7,0,1.1-0.1c0.4-0.1,0.6-0.2,0.8-0.3l-0.3-1.4
			C182.2,61.6,182,61.7,181.7,61.7z"/>
		<path class="st0" d="M159.3,52.9c-0.7-0.4-1.5-0.6-2.5-0.6c-1,0-1.9,0.2-2.7,0.7c-0.8,0.5-1.4,1.1-1.8,2c-0.4,0.8-0.7,1.8-0.7,2.9
			c0,1.1,0.2,2.1,0.7,2.9c0.5,0.8,1.1,1.5,1.9,1.9c0.8,0.4,1.8,0.7,2.9,0.7c0.8,0,1.5-0.1,2.3-0.4c0.7-0.3,1.4-0.6,1.8-1.1l-0.6-1.3
			c-0.5,0.5-1.1,0.8-1.7,1c-0.6,0.2-1.2,0.3-1.8,0.3c-0.8,0-1.5-0.2-2-0.5c-0.6-0.3-1-0.8-1.3-1.4c-0.2-0.5-0.3-1.2-0.4-1.9h8v-0.7
			c0-1.1-0.2-2-0.6-2.8C160.5,53.9,160,53.3,159.3,52.9z M154.9,54.1c0.5-0.4,1.2-0.5,1.9-0.5c1,0,1.8,0.3,2.3,1
			c0.5,0.6,0.7,1.4,0.8,2.4h-6.5c0.1-0.5,0.2-1,0.3-1.5C154,54.9,154.4,54.4,154.9,54.1z"/>
		<path class="st0" d="M171.5,52.7c-0.6-0.3-1.3-0.5-2.1-0.5c-0.9,0-1.7,0.2-2.4,0.7c-0.5,0.3-0.9,0.8-1.3,1.4v-1.8H164v10.7h1.8V57
			c0-0.7,0.1-1.3,0.4-1.8c0.3-0.5,0.6-0.9,1.1-1.2c0.5-0.3,1-0.4,1.7-0.4c0.6,0,1,0.1,1.4,0.3c0.4,0.2,0.6,0.5,0.8,0.9
			c0.2,0.4,0.3,1,0.3,1.6v6.6h1.8v-6.7c0-1-0.1-1.7-0.4-2.4C172.5,53.5,172.1,53,171.5,52.7z"/>
		<path class="st0" d="M123.3,52.7c-0.6-0.3-1.4-0.5-2.3-0.5c-0.5,0-1,0.1-1.5,0.2c-0.5,0.1-1,0.3-1.5,0.5c-0.5,0.2-0.9,0.4-1.3,0.7
			l0.6,1.3c0.6-0.4,1.2-0.7,1.8-0.9c0.6-0.2,1.2-0.3,1.9-0.3c0.8,0,1.4,0.2,1.8,0.6c0.4,0.4,0.5,1,0.5,2v0.7h-0.7
			c-1.6,0-2.9,0.1-3.8,0.3c-0.9,0.2-1.6,0.5-2,1c-0.4,0.5-0.6,1.1-0.6,1.9c0,0.6,0.2,1.2,0.5,1.7c0.3,0.5,0.8,0.9,1.4,1.2
			c0.6,0.3,1.2,0.4,2,0.4c0.6,0,1.1-0.1,1.6-0.3c0.5-0.2,0.9-0.5,1.2-0.9c0.2-0.2,0.4-0.5,0.5-0.8v1.9h1.7v-6.7c0-1-0.1-1.7-0.4-2.3
			C124.3,53.5,123.9,53,123.3,52.7z M122.9,60.4c-0.2,0.5-0.6,0.9-1.1,1.1c-0.4,0.3-1,0.4-1.5,0.4c-0.7,0-1.3-0.2-1.7-0.6
			c-0.4-0.4-0.6-0.9-0.6-1.5c0-0.4,0.1-0.6,0.2-0.9c0.1-0.2,0.4-0.4,0.7-0.6c0.4-0.1,0.8-0.2,1.4-0.3c0.6-0.1,1.3-0.1,2.2-0.1h0.7
			v0.7C123.3,59.4,123.2,59.9,122.9,60.4z"/>
		<path class="st0" d="M92.1,54.3c-0.3-0.5-0.6-1-1.1-1.3c-0.7-0.5-1.5-0.7-2.5-0.7c-1,0-1.8,0.2-2.5,0.7c-0.7,0.4-1.3,1.1-1.6,1.9
			c-0.4,0.8-0.6,1.8-0.6,2.9c0,1.1,0.2,2.1,0.6,2.9c0.4,0.8,0.9,1.5,1.6,1.9c0.7,0.5,1.6,0.7,2.5,0.7c1,0,1.8-0.2,2.5-0.7
			c0.5-0.4,0.9-0.8,1.2-1.4v2h1.7V47.6h-1.8V54.3z M91.2,60.8c-0.6,0.7-1.4,1.1-2.4,1.1c-1,0-1.8-0.4-2.4-1.1
			c-0.6-0.7-0.9-1.7-0.9-3.1c0-1.3,0.3-2.4,0.9-3.1c0.6-0.7,1.4-1.1,2.4-1.1c1,0,1.8,0.4,2.4,1.1c0.6,0.7,0.9,1.7,0.9,3.1
			C92.1,59.1,91.8,60.1,91.2,60.8z"/>
		<path class="st0" d="M79.3,52.9c-0.8-0.5-1.7-0.7-2.7-0.7c-1,0-1.9,0.2-2.7,0.7c-0.8,0.5-1.4,1.1-1.8,1.9
			c-0.4,0.8-0.6,1.8-0.6,2.9c0,1.1,0.2,2.1,0.6,2.9c0.4,0.8,1,1.5,1.8,1.9c0.8,0.5,1.7,0.7,2.7,0.7c1,0,1.9-0.2,2.7-0.7
			c0.8-0.5,1.3-1.1,1.8-1.9c0.4-0.8,0.6-1.8,0.6-2.9c0-1.1-0.2-2.1-0.6-2.9C80.7,54,80.1,53.4,79.3,52.9z M79,60.8
			c-0.6,0.7-1.4,1.1-2.4,1.1c-1,0-1.8-0.4-2.4-1.1c-0.6-0.7-0.9-1.7-0.9-3.1c0-1.3,0.3-2.3,0.9-3c0.6-0.7,1.4-1.1,2.4-1.1
			c1,0,1.8,0.4,2.4,1.1c0.6,0.7,0.9,1.7,0.9,3C79.9,59.1,79.6,60.1,79,60.8z"/>
		<path class="st0" d="M67.2,52.9c-0.7-0.5-1.5-0.7-2.5-0.7c-1,0-1.8,0.2-2.5,0.7c-0.5,0.4-0.9,0.8-1.2,1.4v-1.9h-1.7v14.6h1.8v-5.8
			c0.3,0.5,0.6,1,1.1,1.3c0.7,0.5,1.5,0.7,2.5,0.7c1,0,1.8-0.2,2.5-0.7c0.7-0.5,1.2-1.1,1.6-1.9c0.4-0.8,0.6-1.8,0.6-2.9
			c0-1.1-0.2-2.1-0.6-2.9C68.5,54,68,53.4,67.2,52.9z M66.8,60.8c-0.6,0.7-1.4,1.1-2.4,1.1c-1,0-1.8-0.4-2.4-1.1
			c-0.6-0.7-0.9-1.7-0.9-3.1c0-1.3,0.3-2.4,0.9-3.1c0.6-0.7,1.4-1.1,2.4-1.1c1,0,1.8,0.4,2.4,1.1c0.6,0.7,0.9,1.7,0.9,3.1
			C67.7,59.1,67.4,60.1,66.8,60.8z"/>
		<path class="st0" d="M54.4,52.7c-0.5-0.3-1.2-0.5-2-0.5c-0.9,0-1.7,0.2-2.4,0.7c-0.5,0.4-0.9,0.9-1.2,1.5c-0.2-0.7-0.5-1.2-1-1.5
			c-0.6-0.4-1.3-0.7-2.2-0.7c-0.6,0-1.1,0.1-1.6,0.3c-0.5,0.2-0.9,0.5-1.2,0.9c-0.2,0.2-0.4,0.5-0.5,0.8v-1.8h-1.7v10.7h1.8v-6
			c0-0.7,0.1-1.3,0.3-1.8c0.2-0.5,0.6-0.9,1-1.2c0.4-0.3,0.9-0.4,1.5-0.4c0.8,0,1.4,0.2,1.7,0.7c0.4,0.5,0.5,1.2,0.5,2.2v6.6h1.8v-6
			c0-0.7,0.1-1.3,0.3-1.8c0.2-0.5,0.6-0.9,1-1.2c0.4-0.3,0.9-0.4,1.5-0.4c0.8,0,1.4,0.2,1.7,0.7c0.3,0.5,0.5,1.2,0.5,2.2v6.6H56
			v-6.7c0-1-0.1-1.7-0.4-2.4C55.4,53.5,55,53,54.4,52.7z"/>
		<polygon class="st0" points="27.9,63.1 37.7,63.1 37.7,61.6 29.7,61.6 29.7,56 37.3,56 37.3,54.5 29.7,54.5 29.7,49.1 37.7,49.1 
			37.7,47.6 27.9,47.6 		"/>
		<path class="st0" d="M214.4,58.5c0,0.7-0.1,1.3-0.4,1.8c-0.3,0.5-0.6,0.9-1.1,1.2c-0.5,0.3-1,0.4-1.6,0.4c-0.5,0-1-0.1-1.4-0.3
			c-0.4-0.2-0.6-0.5-0.8-0.9c-0.2-0.4-0.2-1-0.2-1.6v-6.6h-1.8v6.6c0,0.9,0.1,1.7,0.4,2.4c0.3,0.6,0.7,1.1,1.3,1.4
			c0.6,0.3,1.3,0.5,2.2,0.5c0.9,0,1.6-0.2,2.3-0.7c0.5-0.3,0.9-0.8,1.2-1.3v1.8h1.7V52.4h-1.8V58.5z"/>
		<rect x="147.2" y="52.4" class="st0" width="1.8" height="10.7"/>
		<path class="st0" d="M104.2,52.9c-0.7-0.4-1.5-0.6-2.5-0.6c-1,0-1.9,0.2-2.7,0.7c-0.8,0.5-1.4,1.1-1.8,2c-0.4,0.8-0.7,1.8-0.7,2.9
			c0,1.1,0.2,2.1,0.7,2.9c0.5,0.8,1.1,1.5,1.9,1.9c0.8,0.4,1.8,0.7,2.9,0.7c0.8,0,1.5-0.1,2.3-0.4s1.4-0.6,1.8-1.1l-0.6-1.3
			c-0.5,0.5-1.1,0.8-1.7,1c-0.6,0.2-1.2,0.3-1.8,0.3c-0.8,0-1.5-0.2-2-0.5c-0.6-0.3-1-0.8-1.3-1.4c-0.2-0.5-0.3-1.2-0.4-1.9h8v-0.7
			c0-1.1-0.2-2-0.6-2.8C105.4,53.9,104.9,53.3,104.2,52.9z M99.8,54.1c0.5-0.4,1.2-0.5,1.9-0.5c1,0,1.8,0.3,2.3,1
			c0.5,0.6,0.7,1.4,0.8,2.4h-6.5c0.1-0.5,0.2-1,0.3-1.5C98.9,54.9,99.3,54.4,99.8,54.1z"/>
		<path class="st0" d="M142.3,52.7c-0.5-0.3-1.2-0.5-2-0.5c-0.9,0-1.7,0.2-2.4,0.7c-0.5,0.4-0.9,0.9-1.2,1.5c-0.2-0.7-0.5-1.2-1-1.5
			c-0.6-0.4-1.3-0.7-2.2-0.7c-0.6,0-1.1,0.1-1.6,0.3c-0.5,0.2-0.9,0.5-1.2,0.9c-0.2,0.2-0.4,0.5-0.5,0.8v-1.8h-1.7v10.7h1.8v-6
			c0-0.7,0.1-1.3,0.3-1.8c0.2-0.5,0.6-0.9,1-1.2c0.4-0.3,0.9-0.4,1.5-0.4c0.8,0,1.4,0.2,1.7,0.7c0.4,0.5,0.5,1.2,0.5,2.2v6.6h1.8v-6
			c0-0.7,0.1-1.3,0.3-1.8c0.2-0.5,0.6-0.9,1-1.2c0.4-0.3,0.9-0.4,1.5-0.4c0.8,0,1.4,0.2,1.7,0.7c0.3,0.5,0.5,1.2,0.5,2.2v6.6h1.8
			v-6.7c0-1-0.1-1.7-0.4-2.4C143.2,53.5,142.8,53,142.3,52.7z"/>
		<path class="st0" d="M114.2,52.2c-1,0.1-1.8,0.3-2.4,0.8c-0.5,0.3-0.8,0.8-1.1,1.4v-1.9h-1.7v10.7h1.8V57c0-1,0.3-1.7,0.8-2.2
			c0.5-0.6,1.3-0.9,2.3-1l1.1-0.1l-0.1-1.5L114.2,52.2z"/>
		<rect x="147" y="47.8" class="st0" width="2.2" height="2"/>
		<rect x="408.5" y="47.8" class="st0" width="2.2" height="2"/>
		<path class="st0" d="M391.1,58.5c0,0.7-0.1,1.3-0.4,1.8c-0.3,0.5-0.6,0.9-1.1,1.2c-0.5,0.3-1,0.4-1.6,0.4c-0.5,0-1-0.1-1.4-0.3
			c-0.4-0.2-0.6-0.5-0.8-0.9c-0.2-0.4-0.2-1-0.2-1.6v-6.6h-1.8v6.6c0,0.9,0.1,1.7,0.4,2.4c0.3,0.6,0.7,1.1,1.3,1.4
			c0.6,0.3,1.3,0.5,2.2,0.5c0.9,0,1.6-0.2,2.3-0.7c0.5-0.3,0.9-0.8,1.2-1.3v1.8h1.7V52.4h-1.8V58.5z"/>
		<path class="st0" d="M378.9,52.7c-0.5-0.3-1.2-0.5-2-0.5c-0.9,0-1.7,0.2-2.4,0.7c-0.5,0.4-0.9,0.9-1.2,1.5c-0.2-0.7-0.5-1.2-1-1.5
			c-0.6-0.4-1.3-0.7-2.2-0.7c-0.6,0-1.1,0.1-1.6,0.3c-0.5,0.2-0.9,0.5-1.2,0.9c-0.2,0.2-0.4,0.5-0.5,0.8v-1.8h-1.7v10.7h1.8v-6
			c0-0.7,0.1-1.3,0.3-1.8c0.2-0.5,0.6-0.9,1-1.2c0.4-0.3,0.9-0.4,1.5-0.4c0.8,0,1.4,0.2,1.7,0.7c0.4,0.5,0.5,1.2,0.5,2.2v6.6h1.8v-6
			c0-0.7,0.1-1.3,0.3-1.8c0.2-0.5,0.6-0.9,1-1.2c0.4-0.3,0.9-0.4,1.5-0.4c0.8,0,1.4,0.2,1.7,0.7c0.3,0.5,0.5,1.2,0.5,2.2v6.6h1.8
			v-6.7c0-1-0.1-1.7-0.4-2.4C379.9,53.5,379.5,53,378.9,52.7z"/>
		<path class="st0" d="M403.7,52.7c-0.6-0.3-1.3-0.5-2.1-0.5c-0.9,0-1.7,0.2-2.4,0.7c-0.5,0.3-0.9,0.8-1.3,1.4v-1.8h-1.7v10.7h1.8
			V57c0-0.7,0.1-1.3,0.4-1.8s0.6-0.9,1.1-1.2c0.5-0.3,1-0.4,1.7-0.4c0.6,0,1,0.1,1.4,0.3c0.4,0.2,0.6,0.5,0.8,0.9
			c0.2,0.4,0.3,1,0.3,1.6v6.6h1.8v-6.7c0-1-0.1-1.7-0.4-2.4C404.7,53.5,404.3,53,403.7,52.7z"/>
		<path class="st0" d="M360,52.9c-0.8-0.5-1.7-0.7-2.7-0.7s-1.9,0.2-2.7,0.7c-0.8,0.5-1.4,1.1-1.8,1.9c-0.4,0.8-0.6,1.8-0.6,2.9
			c0,1.1,0.2,2.1,0.6,2.9c0.4,0.8,1,1.5,1.8,1.9s1.7,0.7,2.7,0.7s1.9-0.2,2.7-0.7c0.8-0.5,1.3-1.1,1.8-1.9c0.4-0.8,0.6-1.8,0.6-2.9
			c0-1.1-0.2-2.1-0.6-2.9C361.3,54,360.7,53.4,360,52.9z M359.6,60.8c-0.6,0.7-1.4,1.1-2.4,1.1c-1,0-1.8-0.4-2.4-1.1
			c-0.6-0.7-0.9-1.7-0.9-3.1c0-1.3,0.3-2.3,0.9-3c0.6-0.7,1.4-1.1,2.4-1.1c1,0,1.8,0.4,2.4,1.1c0.6,0.7,0.9,1.7,0.9,3
			C360.5,59.1,360.2,60.1,359.6,60.8z"/>
		<path class="st0" d="M331.6,57.4l-2-0.4c-0.6-0.1-1-0.3-1.2-0.6c-0.3-0.3-0.4-0.6-0.4-1c0-0.5,0.2-1,0.6-1.3
			c0.4-0.3,1-0.5,1.9-0.5c0.4,0,0.8,0.1,1.1,0.2c0.4,0.1,0.7,0.2,1.1,0.4c0.4,0.2,0.7,0.4,0.9,0.7l0.6-1.3c-0.3-0.3-0.6-0.5-1.1-0.7
			c-0.4-0.2-0.8-0.4-1.3-0.5c-0.5-0.1-0.9-0.2-1.4-0.2c-0.8,0-1.6,0.1-2.2,0.4c-0.6,0.3-1.1,0.6-1.5,1.1c-0.3,0.5-0.5,1-0.5,1.7
			c0,0.7,0.2,1.4,0.7,1.8c0.5,0.5,1.1,0.8,2.1,1l2,0.4c0.6,0.1,1,0.3,1.3,0.6c0.3,0.2,0.4,0.6,0.4,1c0,0.5-0.2,0.9-0.6,1.3
			c-0.4,0.3-1.1,0.5-1.9,0.5c-0.4,0-0.9,0-1.3-0.1c-0.4-0.1-0.8-0.2-1.3-0.4c-0.4-0.2-0.8-0.4-1.1-0.7L326,62
			c0.3,0.3,0.7,0.5,1.1,0.7c0.5,0.2,0.9,0.3,1.5,0.4c0.5,0.1,1.1,0.2,1.6,0.2c0.9,0,1.6-0.1,2.2-0.4c0.6-0.3,1.1-0.6,1.5-1.1
			c0.4-0.5,0.5-1,0.5-1.7c0-0.8-0.2-1.4-0.7-1.8C333.3,57.9,332.6,57.6,331.6,57.4z"/>
		<path class="st0" d="M347.5,53.7c0.5,0,0.9,0.1,1.4,0.3c0.5,0.2,1,0.5,1.4,0.9l0.6-1.3c-0.4-0.4-1-0.8-1.6-1
			c-0.6-0.2-1.3-0.4-2-0.4c-1.1,0-2,0.2-2.8,0.7c-0.8,0.4-1.4,1.1-1.8,1.9c-0.4,0.8-0.6,1.8-0.6,2.9c0,1.1,0.2,2.1,0.6,2.9
			c0.4,0.8,1,1.5,1.8,2c0.8,0.5,1.7,0.7,2.8,0.7c0.6,0,1.3-0.1,1.9-0.4c0.7-0.2,1.2-0.6,1.6-1l-0.6-1.3c-0.4,0.4-0.9,0.7-1.4,0.9
			c-0.5,0.2-1,0.3-1.4,0.3c-1.1,0-2-0.4-2.6-1.1c-0.6-0.7-0.9-1.8-0.9-3c0-1.3,0.3-2.3,0.9-3C345.5,54,346.4,53.7,347.5,53.7z"/>
		<rect x="408.7" y="52.4" class="st0" width="1.8" height="10.7"/>
		<path class="st0" d="M470,58.4c-0.5-0.5-1.2-0.8-2.1-1l-2-0.4c-0.6-0.1-1-0.3-1.2-0.6c-0.3-0.3-0.4-0.6-0.4-1c0-0.5,0.2-1,0.6-1.3
			c0.4-0.3,1-0.5,1.9-0.5c0.4,0,0.8,0.1,1.1,0.2c0.4,0.1,0.7,0.2,1.1,0.4c0.4,0.2,0.7,0.4,0.9,0.7l0.6-1.3c-0.3-0.3-0.6-0.5-1.1-0.7
			c-0.4-0.2-0.8-0.4-1.3-0.5c-0.5-0.1-0.9-0.2-1.4-0.2c-0.8,0-1.6,0.1-2.2,0.4c-0.6,0.3-1.1,0.6-1.5,1.1c-0.3,0.5-0.5,1-0.5,1.7
			c0,0.7,0.2,1.4,0.7,1.8c0.5,0.5,1.1,0.8,2.1,1l2,0.4c0.6,0.1,1,0.3,1.3,0.6c0.3,0.2,0.4,0.6,0.4,1c0,0.5-0.2,0.9-0.6,1.3
			s-1.1,0.5-1.9,0.5c-0.4,0-0.9,0-1.3-0.1c-0.4-0.1-0.8-0.2-1.3-0.4c-0.4-0.2-0.8-0.4-1.1-0.7l-0.6,1.3c0.3,0.3,0.7,0.5,1.1,0.7
			c0.5,0.2,0.9,0.3,1.5,0.4c0.5,0.1,1.1,0.2,1.6,0.2c0.9,0,1.6-0.1,2.2-0.4c0.6-0.3,1.1-0.6,1.5-1.1c0.4-0.5,0.5-1,0.5-1.7
			C470.7,59.4,470.4,58.8,470,58.4z"/>
		<path class="st0" d="M421.5,54.3c-0.3-0.5-0.6-1-1.1-1.3c-0.7-0.5-1.5-0.7-2.5-0.7c-1,0-1.8,0.2-2.5,0.7c-0.7,0.4-1.3,1.1-1.6,1.9
			c-0.4,0.8-0.6,1.8-0.6,2.9c0,1.1,0.2,2.1,0.6,2.9c0.4,0.8,0.9,1.5,1.6,1.9c0.7,0.5,1.6,0.7,2.5,0.7c1,0,1.8-0.2,2.5-0.7
			c0.5-0.4,0.9-0.8,1.2-1.4v2h1.7V47.6h-1.8V54.3z M420.6,60.8c-0.6,0.7-1.4,1.1-2.4,1.1c-1,0-1.8-0.4-2.4-1.1
			c-0.6-0.7-0.9-1.7-0.9-3.1c0-1.3,0.3-2.4,0.9-3.1c0.6-0.7,1.4-1.1,2.4-1.1c1,0,1.8,0.4,2.4,1.1c0.6,0.7,0.9,1.7,0.9,3.1
			C421.5,59.1,421.2,60.1,420.6,60.8z"/>
		<path class="st0" d="M458.1,52.9c-0.7-0.4-1.5-0.6-2.5-0.6c-1,0-1.9,0.2-2.7,0.7c-0.8,0.5-1.4,1.1-1.8,2c-0.4,0.8-0.7,1.8-0.7,2.9
			c0,1.1,0.2,2.1,0.7,2.9c0.5,0.8,1.1,1.5,1.9,1.9c0.8,0.4,1.8,0.7,2.9,0.7c0.8,0,1.5-0.1,2.3-0.4c0.7-0.3,1.4-0.6,1.8-1.1l-0.6-1.3
			c-0.5,0.5-1.1,0.8-1.7,1c-0.6,0.2-1.2,0.3-1.8,0.3c-0.8,0-1.5-0.2-2-0.5c-0.6-0.3-1-0.8-1.3-1.4c-0.2-0.5-0.3-1.2-0.4-1.9h8v-0.7
			c0-1.1-0.2-2-0.6-2.8C459.3,53.9,458.8,53.3,458.1,52.9z M453.7,54.1c0.5-0.4,1.2-0.5,1.9-0.5c1,0,1.8,0.3,2.3,1
			c0.5,0.6,0.7,1.4,0.8,2.4h-6.5c0.1-0.5,0.2-1,0.3-1.5C452.8,54.9,453.2,54.4,453.7,54.1z"/>
		<path class="st0" d="M446,54.3c-0.3-0.5-0.6-1-1.1-1.3c-0.7-0.5-1.5-0.7-2.5-0.7c-1,0-1.8,0.2-2.5,0.7c-0.7,0.4-1.3,1.1-1.6,1.9
			c-0.4,0.8-0.6,1.8-0.6,2.9c0,1.1,0.2,2.1,0.6,2.9c0.4,0.8,0.9,1.5,1.6,1.9c0.7,0.5,1.6,0.7,2.5,0.7c1,0,1.8-0.2,2.5-0.7
			c0.5-0.4,0.9-0.8,1.2-1.4v2h1.7V47.6H446V54.3z M445.1,60.8c-0.6,0.7-1.4,1.1-2.4,1.1c-1,0-1.8-0.4-2.4-1.1
			c-0.6-0.7-0.9-1.7-0.9-3.1c0-1.3,0.3-2.4,0.9-3.1c0.6-0.7,1.4-1.1,2.4-1.1c1,0,1.8,0.4,2.4,1.1c0.6,0.7,0.9,1.7,0.9,3.1
			C446,59.1,445.7,60.1,445.1,60.8z"/>
		<path class="st0" d="M224.7,52.2c-1,0.1-1.8,0.3-2.4,0.8c-0.5,0.3-0.8,0.8-1.1,1.4v-1.9h-1.7v10.7h1.8V57c0-1,0.3-1.7,0.8-2.2
			c0.5-0.6,1.3-0.9,2.3-1l1.1-0.1l-0.1-1.5L224.7,52.2z"/>
		<path class="st0" d="M433.2,52.7c-0.6-0.3-1.4-0.5-2.3-0.5c-0.5,0-1,0.1-1.5,0.2c-0.5,0.1-1,0.3-1.5,0.5c-0.5,0.2-0.9,0.4-1.3,0.7
			l0.6,1.3c0.6-0.4,1.2-0.7,1.8-0.9c0.6-0.2,1.2-0.3,1.9-0.3c0.8,0,1.4,0.2,1.8,0.6c0.4,0.4,0.5,1,0.5,2v0.7h-0.7
			c-1.6,0-2.9,0.1-3.8,0.3c-0.9,0.2-1.6,0.5-2,1c-0.4,0.5-0.6,1.1-0.6,1.9c0,0.6,0.2,1.2,0.5,1.7c0.3,0.5,0.8,0.9,1.4,1.2
			c0.6,0.3,1.2,0.4,2,0.4c0.6,0,1.1-0.1,1.6-0.3c0.5-0.2,0.9-0.5,1.2-0.9c0.2-0.2,0.4-0.5,0.5-0.8v1.9h1.7v-6.7c0-1-0.1-1.7-0.4-2.3
			C434.2,53.5,433.8,53,433.2,52.7z M432.9,60.4c-0.2,0.5-0.6,0.9-1.1,1.1c-0.4,0.3-1,0.4-1.5,0.4c-0.7,0-1.3-0.2-1.7-0.6
			c-0.4-0.4-0.6-0.9-0.6-1.5c0-0.4,0.1-0.6,0.2-0.9c0.1-0.2,0.4-0.4,0.7-0.6c0.4-0.1,0.8-0.2,1.4-0.3c0.6-0.1,1.3-0.1,2.2-0.1h0.7
			v0.7C433.3,59.4,433.1,59.9,432.9,60.4z"/>
		<rect x="245.3" y="52.4" class="st0" width="1.8" height="10.7"/>
		<path class="st0" d="M321.5,52.7c-0.6-0.3-1.4-0.5-2.3-0.5c-0.5,0-1,0.1-1.5,0.2c-0.5,0.1-1,0.3-1.5,0.5c-0.5,0.2-0.9,0.4-1.3,0.7
			l0.6,1.3c0.6-0.4,1.2-0.7,1.8-0.9c0.6-0.2,1.2-0.3,1.9-0.3c0.8,0,1.4,0.2,1.8,0.6c0.4,0.4,0.5,1,0.5,2v0.7h-0.7
			c-1.6,0-2.9,0.1-3.8,0.3c-0.9,0.2-1.6,0.5-2,1c-0.4,0.5-0.6,1.1-0.6,1.9c0,0.6,0.2,1.2,0.5,1.7c0.3,0.5,0.8,0.9,1.4,1.2
			c0.6,0.3,1.2,0.4,2,0.4c0.6,0,1.1-0.1,1.6-0.3c0.5-0.2,0.9-0.5,1.2-0.9c0.2-0.2,0.4-0.5,0.5-0.8v1.9h1.7v-6.7c0-1-0.1-1.7-0.4-2.3
			C322.6,53.5,322.1,53,321.5,52.7z M321.2,60.4c-0.2,0.5-0.6,0.9-1.1,1.1c-0.4,0.3-1,0.4-1.5,0.4c-0.7,0-1.3-0.2-1.7-0.6
			c-0.4-0.4-0.6-0.9-0.6-1.5c0-0.4,0.1-0.6,0.2-0.9c0.1-0.2,0.4-0.4,0.7-0.6c0.4-0.1,0.8-0.2,1.4-0.3c0.6-0.1,1.3-0.1,2.2-0.1h0.7
			v0.7C321.6,59.4,321.4,59.9,321.2,60.4z"/>
		<rect x="227.4" y="52.4" class="st0" width="1.8" height="10.7"/>
		<rect x="245.1" y="47.8" class="st0" width="2.2" height="2"/>
		<polygon class="st0" points="227.6,51 228.9,51 231.8,46.6 229.9,46.6 		"/>
		<path class="st0" d="M240.2,54.3c-0.3-0.5-0.6-1-1.1-1.3c-0.7-0.5-1.5-0.7-2.5-0.7c-1,0-1.8,0.2-2.5,0.7c-0.7,0.4-1.3,1.1-1.6,1.9
			c-0.4,0.8-0.6,1.8-0.6,2.9c0,1.1,0.2,2.1,0.6,2.9c0.4,0.8,0.9,1.5,1.6,1.9c0.7,0.5,1.6,0.7,2.5,0.7c1,0,1.8-0.2,2.5-0.7
			c0.5-0.4,0.9-0.8,1.2-1.4v2h1.7V47.6h-1.8V54.3z M239.3,60.8c-0.6,0.7-1.4,1.1-2.4,1.1c-1,0-1.8-0.4-2.4-1.1
			c-0.6-0.7-0.9-1.7-0.9-3.1c0-1.3,0.3-2.4,0.9-3.1c0.6-0.7,1.4-1.1,2.4-1.1c1,0,1.8,0.4,2.4,1.1c0.6,0.7,0.9,1.7,0.9,3.1
			C240.2,59.1,239.9,60.1,239.3,60.8z"/>
		<path class="st0" d="M312.1,61.8c-0.4,0-0.8-0.1-1-0.3c-0.3-0.2-0.5-0.4-0.6-0.8c-0.1-0.4-0.2-0.8-0.2-1.3V47.6h-1.8v12
			c0,1.2,0.3,2.1,0.8,2.8c0.6,0.6,1.4,1,2.5,1c0.2,0,0.4,0,0.6,0c0.2,0,0.4-0.1,0.7-0.1l0-1.5c-0.1,0-0.3,0.1-0.5,0.1
			C312.4,61.8,312.3,61.8,312.1,61.8z"/>
		<path class="st0" d="M255.1,53.7c0.5,0,0.9,0.1,1.4,0.3c0.5,0.2,1,0.5,1.4,0.9l0.6-1.3c-0.4-0.4-1-0.8-1.6-1
			c-0.6-0.2-1.3-0.4-2-0.4c-1.1,0-2,0.2-2.8,0.7c-0.8,0.4-1.4,1.1-1.8,1.9c-0.4,0.8-0.6,1.8-0.6,2.9c0,1.1,0.2,2.1,0.6,2.9
			c0.4,0.8,1,1.5,1.8,2c0.8,0.5,1.7,0.7,2.8,0.7c0.6,0,1.3-0.1,1.9-0.4c0.7-0.2,1.2-0.6,1.6-1l-0.6-1.3c-0.4,0.4-0.9,0.7-1.4,0.9
			c-0.5,0.2-1,0.3-1.4,0.3c-1.1,0-2-0.4-2.6-1.1c-0.6-0.7-0.9-1.8-0.9-3c0-1.3,0.3-2.3,0.9-3C253.1,54,253.9,53.7,255.1,53.7z"/>
		<path class="st0" d="M298,52.9c-0.7-0.4-1.5-0.6-2.5-0.6c-1,0-1.9,0.2-2.7,0.7c-0.8,0.5-1.4,1.1-1.8,2c-0.4,0.8-0.7,1.8-0.7,2.9
			c0,1.1,0.2,2.1,0.7,2.9c0.5,0.8,1.1,1.5,1.9,1.9c0.8,0.4,1.8,0.7,2.9,0.7c0.8,0,1.5-0.1,2.3-0.4c0.7-0.3,1.4-0.6,1.8-1.1l-0.6-1.3
			c-0.5,0.5-1.1,0.8-1.7,1c-0.6,0.2-1.2,0.3-1.8,0.3c-0.8,0-1.5-0.2-2-0.5c-0.6-0.3-1-0.8-1.3-1.4c-0.2-0.5-0.3-1.2-0.4-1.9h8v-0.7
			c0-1.1-0.2-2-0.6-2.8C299.3,53.9,298.7,53.3,298,52.9z M293.7,54.1c0.5-0.4,1.2-0.5,1.9-0.5c1,0,1.8,0.3,2.3,1
			c0.5,0.6,0.7,1.4,0.8,2.4h-6.5c0.1-0.5,0.2-1,0.3-1.5C292.8,54.9,293.2,54.4,293.7,54.1z"/>
		<path class="st0" d="M267.5,52.9c-0.8-0.5-1.7-0.7-2.7-0.7c-1,0-1.9,0.2-2.7,0.7c-0.8,0.5-1.4,1.1-1.8,1.9
			c-0.4,0.8-0.6,1.8-0.6,2.9c0,1.1,0.2,2.1,0.6,2.9c0.4,0.8,1,1.5,1.8,1.9s1.7,0.7,2.7,0.7c1,0,1.9-0.2,2.7-0.7s1.3-1.1,1.8-1.9
			c0.4-0.8,0.6-1.8,0.6-2.9c0-1.1-0.2-2.1-0.6-2.9C268.9,54,268.3,53.4,267.5,52.9z M267.2,60.8c-0.6,0.7-1.4,1.1-2.4,1.1
			c-1,0-1.8-0.4-2.4-1.1c-0.6-0.7-0.9-1.7-0.9-3.1c0-1.3,0.3-2.3,0.9-3c0.6-0.7,1.4-1.1,2.4-1.1c1,0,1.8,0.4,2.4,1.1
			c0.6,0.7,0.9,1.7,0.9,3C268.1,59.1,267.8,60.1,267.2,60.8z"/>
		<path class="st0" d="M285.9,54.3c-0.3-0.5-0.6-1-1.1-1.3c-0.7-0.5-1.5-0.7-2.5-0.7c-1,0-1.8,0.2-2.5,0.7c-0.7,0.4-1.3,1.1-1.6,1.9
			c-0.4,0.8-0.6,1.8-0.6,2.9c0,1.1,0.2,2.1,0.6,2.9c0.4,0.8,0.9,1.5,1.6,1.9c0.7,0.5,1.6,0.7,2.5,0.7c1,0,1.8-0.2,2.5-0.7
			c0.5-0.4,0.9-0.8,1.2-1.4v2h1.7V47.6h-1.8V54.3z M285.1,60.8c-0.6,0.7-1.4,1.1-2.4,1.1c-1,0-1.8-0.4-2.4-1.1
			c-0.6-0.7-0.9-1.7-0.9-3.1c0-1.3,0.3-2.4,0.9-3.1c0.6-0.7,1.4-1.1,2.4-1.1c1,0,1.8,0.4,2.4,1.1c0.6,0.7,0.9,1.7,0.9,3.1
			C286,59.1,285.7,60.1,285.1,60.8z"/>
	</g>
	<g>
		<path class="st0" d="M147.4,8.2c-1.7,0-3.3,0.3-4.9,0.9c-1.6,0.6-3,1.4-4.2,2.5c-1.2,1.1-2.2,2.5-3,4.1c-0.7,1.6-1.1,3.4-1.1,5.5
			c0,2.1,0.4,3.9,1.1,5.5c0.7,1.6,1.7,3,3,4.1c1.3,1.1,2.7,2,4.2,2.6c1.6,0.6,3.2,0.9,4.9,0.9c1.3,0,2.5-0.2,3.6-0.6
			c1.1-0.4,2.1-0.9,2.9-1.6v-6.7c-1,0.8-1.9,1.4-2.8,1.8c-0.9,0.4-2.1,0.6-3.5,0.6c-1.1,0-2.2-0.3-3.1-0.9c-0.9-0.6-1.7-1.3-2.3-2.3
			c-0.6-1-0.9-2.1-0.9-3.3c0-1.2,0.3-2.3,0.9-3.3c0.6-1,1.4-1.8,2.3-2.3c1-0.6,2-0.9,3.1-0.9c1,0,1.8,0.1,2.5,0.3
			c0.7,0.2,1.3,0.4,1.9,0.8c0.6,0.3,1.2,0.8,1.9,1.3v-6.7c-0.8-0.7-1.8-1.3-2.9-1.6C150,8.4,148.8,8.2,147.4,8.2z"/>
		<path class="st0" d="M119.3,8.4L108,33.6h8.1l1.3-3.7h7.3l1.3,3.7h8.1L122.8,8.4H119.3z M119.3,24.7l1.8-5.1l1.8,5.1H119.3z"/>
		<polygon class="st0" points="172.4,1.4 166.7,1.4 163,6.9 167.5,6.9 		"/>
		<path class="st0" d="M11.8,8.4L0.6,33.6h8.1l1.3-3.7h7.3l1.3,3.7h8.1L15.3,8.4H11.8z M11.8,24.7l1.8-5.1l1.8,5.1H11.8z"/>
		<path class="st0" d="M99.5,24.8L99.5,24.8v2.3c-0.3,0.2-0.8,0.3-1.3,0.4c-0.5,0.1-1,0.1-1.6,0.1c-1.1,0-2.2-0.3-3.1-0.9
			c-0.9-0.6-1.7-1.3-2.3-2.3c-0.6-1-0.9-2.1-0.9-3.3c0-1.2,0.3-2.3,0.9-3.3c0.6-1,1.4-1.8,2.3-2.3c1-0.6,2-0.9,3.1-0.9
			c1,0,1.8,0.1,2.5,0.3c0.7,0.2,1.3,0.4,1.9,0.8c0.6,0.3,1.2,0.8,1.9,1.3v-6.7c-0.8-0.7-1.8-1.3-2.9-1.6c-1.1-0.4-2.3-0.6-3.6-0.6
			c-1.7,0-3.3,0.3-4.9,0.9c-1.6,0.6-3,1.4-4.2,2.5c-1.2,1.1-2.2,2.5-3,4.1c-0.7,1.6-1.1,3.4-1.1,5.5c0,2.1,0.4,3.9,1.1,5.5
			c0.7,1.6,1.7,3,3,4.1c1.3,1.1,2.7,2,4.2,2.6c1.6,0.6,3.2,0.9,4.9,0.9c1.2,0,2.4-0.2,3.5-0.5c1.1-0.3,2.1-0.7,3-1.3
			c0.9-0.6,1.8-1.3,2.6-2.1v-10h-6V24.8z"/>
		<path class="st0" d="M49.2,22c-0.7-0.4-1.4-0.8-2.2-1.1c1-0.5,1.7-1.3,2.3-2.2c0.6-0.9,0.9-2,0.9-3.3c0-1.4-0.4-2.7-1.2-3.8
			c-0.8-1.1-1.9-1.9-3.5-2.5c-1.5-0.6-3.4-0.9-5.5-0.9c-1.8,0-3.5,0.1-5.2,0.3s-3.3,0.4-4.8,0.7v23.9c0.8,0.2,1.8,0.3,3.1,0.5
			c1.3,0.2,2.6,0.3,4,0.4c1.4,0.1,2.7,0.2,3.8,0.2c2.3,0,4.1-0.4,5.7-1.1c1.5-0.7,2.7-1.7,3.5-2.9c0.8-1.2,1.2-2.5,1.2-3.9
			c0-1.1-0.2-2-0.6-2.7C50.4,22.9,49.9,22.4,49.2,22z M38.8,14.2c0.7,0,1.4-0.1,2-0.1c0.6,0,1.1,0.1,1.5,0.4c0.4,0.2,0.7,0.6,0.9,1
			c0.2,0.4,0.3,0.8,0.3,1.3c0,0.8-0.2,1.3-0.7,1.7c-0.4,0.4-1.1,0.6-1.9,0.6h-3.9v-4.6C37.5,14.3,38.1,14.2,38.8,14.2z M43.2,27.7
			c-0.5,0.5-1.2,0.8-2.3,0.8c-0.2,0-0.6,0-1.1,0c-0.5,0-1-0.1-1.5-0.1c-0.5-0.1-0.9-0.2-1.3-0.3v-4.3h3.6c1,0,1.8,0.2,2.4,0.5
			c0.6,0.3,0.9,0.9,0.9,1.6C44,26.5,43.7,27.2,43.2,27.7z"/>
		<path class="st0" d="M76.3,11.6c-1.2-1.1-2.6-2-4.2-2.5c-1.5-0.6-3.1-0.9-4.8-0.9c-1.7,0-3.3,0.3-4.9,0.9
			c-1.5,0.6-2.9,1.4-4.1,2.5c-1.2,1.1-2.2,2.5-2.9,4.1c-0.7,1.6-1,3.4-1,5.5c0,2.1,0.3,3.9,1,5.5c0.7,1.6,1.7,3,2.9,4.1
			c1.2,1.1,2.6,2,4.1,2.6c1.6,0.6,3.2,0.9,4.9,0.9c1.7,0,3.3-0.3,4.8-0.9c1.6-0.6,2.9-1.4,4.2-2.6c1.2-1.1,2.2-2.5,2.9-4.1
			c0.7-1.6,1.1-3.4,1.1-5.5c0-2.1-0.4-3.9-1.1-5.5C78.4,14.1,77.5,12.8,76.3,11.6z M72.4,24.6c-0.5,1-1.2,1.7-2.1,2.3
			c-0.9,0.6-1.9,0.9-3,0.9c-1.1,0-2.1-0.3-3-0.9c-0.9-0.6-1.6-1.3-2.1-2.3c-0.5-1-0.7-2.1-0.7-3.3c0-1.2,0.2-2.3,0.7-3.3
			c0.5-1,1.2-1.8,2.1-2.3c0.9-0.6,1.9-0.9,3-0.9c1.1,0,2.1,0.3,3,0.9c0.9,0.6,1.6,1.3,2.1,2.3c0.5,1,0.7,2.1,0.7,3.3
			C73.1,22.5,72.8,23.6,72.4,24.6z"/>
		<polygon class="st0" points="282.6,19.2 271.9,8.4 269.5,8.4 269.5,33.6 276.4,33.6 276.4,21.4 281.5,27.2 283.6,27.2 288.7,21.4 
			288.7,33.6 295.6,33.6 295.6,8.4 293.2,8.4 		"/>
		<path class="st0" d="M408.8,8.4l-11.3,25.2h8.1l1.3-3.7h7.3l1.3,3.7h8.1L412.3,8.4H408.8z M408.7,24.7l1.8-5.1l1.8,5.1H408.7z"/>
		<polygon class="st0" points="397.9,14.5 397.9,8.8 391.1,8.8 384.2,8.8 377.5,8.8 377.5,14.5 384.2,14.5 384.2,33.6 391.1,33.6 
			391.1,14.5 		"/>
		<polygon class="st0" points="362.1,8.8 357.5,8.8 357.5,14.5 362.1,14.5 362.1,27.9 357.5,27.9 357.5,33.6 362.1,33.6 369,33.6 
			373.6,33.6 373.6,27.9 369,27.9 369,14.5 373.6,14.5 373.6,8.8 369,8.8 		"/>
		<polygon class="st0" points="162.7,8.8 158.1,8.8 158.1,14.5 162.7,14.5 162.7,27.9 158.1,27.9 158.1,33.6 162.7,33.6 169.6,33.6 
			174.2,33.6 174.2,27.9 169.6,27.9 169.6,14.5 174.2,14.5 174.2,8.8 169.6,8.8 		"/>
		<polygon class="st0" points="456.8,8.8 452.3,8.8 452.3,14.5 456.8,14.5 456.8,27.9 452.3,27.9 452.3,33.6 456.8,33.6 463.8,33.6 
			468.4,33.6 468.4,27.9 463.8,27.9 463.8,14.5 468.4,14.5 468.4,8.8 463.8,8.8 		"/>
		<path class="st0" d="M489.5,33.6h8.1L486.3,8.4h-3.5l-11.3,25.2h8.1l1.3-3.7h7.3L489.5,33.6z M482.7,24.7l1.8-5.1l1.8,5.1H482.7z"
			/>
		<path class="st0" d="M443.8,23.7c1.3-0.5,2.3-1.3,3-2.4c0.7-1.1,1.1-2.4,1.1-3.9c0-1.5-0.3-2.7-0.9-3.8c-0.6-1.1-1.3-2-2.3-2.7
			c-1-0.7-2.1-1.2-3.3-1.6c-1.2-0.3-2.4-0.5-3.7-0.5h-10.6v24.9h6.9v-9.9l6.6,9.9h8.5l-7.1-9.4C442.6,24.1,443.2,23.9,443.8,23.7z
			 M436.9,14.5c1.1,0,2,0.2,2.7,0.7c0.7,0.4,1.1,1.2,1.1,2.2c0,0.9-0.4,1.6-1.1,2.2c-0.7,0.5-1.6,0.8-2.7,0.8c-0.7,0-1.4-0.1-2-0.3
			c-0.3-0.1-0.6-0.2-0.9-0.3v-5.4H436.9z"/>
		<path class="st0" d="M188.6,8.4l-11.3,25.2h8.1l1.3-3.7h7.3l1.3,3.7h8.1L192.1,8.4H188.6z M188.5,24.7l1.8-5.1l1.8,5.1H188.5z"/>
		<path class="st0" d="M229.7,8.2c-1.7,0-3.3,0.3-4.9,0.9c-1.6,0.6-3,1.4-4.2,2.5c-1.2,1.1-2.2,2.5-3,4.1c-0.7,1.6-1.1,3.4-1.1,5.5
			c0,2.1,0.4,3.9,1.1,5.5c0.7,1.6,1.7,3,3,4.1c1.3,1.1,2.7,2,4.2,2.6c1.6,0.6,3.2,0.9,4.9,0.9c1.3,0,2.5-0.2,3.6-0.6
			c1.1-0.4,2.1-0.9,2.9-1.6v-6.7c-1,0.8-1.9,1.4-2.8,1.8c-0.9,0.4-2.1,0.6-3.5,0.6c-1.1,0-2.2-0.3-3.1-0.9c-0.9-0.6-1.7-1.3-2.3-2.3
			c-0.6-1-0.9-2.1-0.9-3.3c0-1.2,0.3-2.3,0.9-3.3c0.6-1,1.4-1.8,2.3-2.3c1-0.6,2-0.9,3.1-0.9c1,0,1.8,0.1,2.5,0.3
			c0.7,0.2,1.3,0.4,1.9,0.8c0.6,0.3,1.2,0.8,1.9,1.3v-6.7c-0.8-0.7-1.8-1.3-2.9-1.6C232.2,8.4,231,8.2,229.7,8.2z"/>
		<polygon class="st0" points="345,20.8 331.7,8.4 329.2,8.4 329.2,33.6 336.2,33.6 336.2,21.8 349.5,34 351.9,34 351.9,8.8 
			345,8.8 		"/>
		<path class="st0" d="M316.7,23.3c0,0.8-0.2,1.6-0.5,2.3c-0.3,0.7-0.8,1.2-1.4,1.6c-0.6,0.4-1.4,0.6-2.4,0.6c-1,0-1.8-0.2-2.4-0.6
			c-0.6-0.4-1.1-0.9-1.4-1.6c-0.3-0.7-0.4-1.4-0.4-2.3V8.7h-6.9v15.1c0,2.2,0.5,4,1.5,5.6c1,1.6,2.4,2.8,4.1,3.6
			c1.7,0.8,3.6,1.2,5.6,1.2c2.1,0,4-0.4,5.6-1.2c1.7-0.8,3.1-2,4.1-3.6c1-1.6,1.5-3.4,1.5-5.6V8.7h-6.9V23.3z"/>
		<path class="st0" d="M261.1,11.6c-1.2-1.1-2.6-2-4.2-2.5c-1.5-0.6-3.1-0.9-4.8-0.9s-3.3,0.3-4.9,0.9c-1.5,0.6-2.9,1.4-4.1,2.5
			c-1.2,1.1-2.2,2.5-2.9,4.1c-0.7,1.6-1,3.4-1,5.5c0,2.1,0.3,3.9,1,5.5c0.7,1.6,1.7,3,2.9,4.1c1.2,1.1,2.6,2,4.1,2.6
			c1.6,0.6,3.2,0.9,4.9,0.9s3.3-0.3,4.8-0.9c1.6-0.6,2.9-1.4,4.2-2.6c1.2-1.1,2.2-2.5,2.9-4.1c0.7-1.6,1.1-3.4,1.1-5.5
			c0-2.1-0.4-3.9-1.1-5.5C263.3,14.1,262.3,12.8,261.1,11.6z M257.2,24.6c-0.5,1-1.2,1.7-2.1,2.3c-0.9,0.6-1.9,0.9-3,0.9
			c-1.1,0-2.1-0.3-3-0.9c-0.9-0.6-1.6-1.3-2.1-2.3c-0.5-1-0.7-2.1-0.7-3.3c0-1.2,0.2-2.3,0.7-3.3c0.5-1,1.2-1.8,2.1-2.3
			c0.9-0.6,1.9-0.9,3-0.9c1.1,0,2.1,0.3,3,0.9c0.9,0.6,1.6,1.3,2.1,2.3c0.5,1,0.7,2.1,0.7,3.3C257.9,22.5,257.7,23.6,257.2,24.6z"/>
	</g>
</g>
</svg>
