<svg width="22" height="22" viewBox="0 0 22 22" fill="none" xmlns="http://www.w3.org/2000/svg">
<path d="M19.5854 16.1674C18.8971 15.4786 18.0928 14.9163 17.2095 14.5065C18.4552 13.4972 19.2499 11.9573 19.2499 10.2303C19.2499 7.18344 16.709 4.68376 13.662 4.73051C10.6618 4.77726 8.24452 7.22193 8.24452 10.2303C8.24452 11.9573 9.04201 13.4972 10.285 14.5065C9.40147 14.916 8.59714 15.4783 7.90902 16.1674C6.40753 17.6716 5.55503 19.6571 5.50003 21.7745C5.4993 21.8039 5.50445 21.8331 5.51518 21.8604C5.5259 21.8877 5.54199 21.9126 5.56249 21.9336C5.583 21.9546 5.6075 21.9713 5.63455 21.9827C5.66161 21.9941 5.69067 22 5.72003 22H7.26002C7.37827 22 7.47727 21.9065 7.48002 21.7883C7.53227 20.1933 8.17852 18.7001 9.31426 17.5671C9.89544 16.9829 10.5867 16.5197 11.3481 16.2044C12.1095 15.8891 12.9259 15.7279 13.75 15.7302C15.4247 15.7302 17.0005 16.3819 18.1857 17.5671C19.3187 18.7001 19.9649 20.1933 20.0199 21.7883C20.0227 21.9065 20.1217 22 20.2399 22H21.7799C21.8093 22 21.8384 21.9941 21.8654 21.9827C21.8925 21.9713 21.917 21.9546 21.9375 21.9336C21.958 21.9126 21.9741 21.8877 21.9848 21.8604C21.9955 21.8331 22.0007 21.8039 21.9999 21.7745C21.9449 19.6571 21.0924 17.6716 19.5854 16.1674ZM13.75 13.7502C12.8095 13.7502 11.924 13.3845 11.2612 12.719C10.9286 12.389 10.6659 11.9955 10.4887 11.5617C10.3116 11.128 10.2236 10.6631 10.23 10.1946C10.2383 9.29262 10.5985 8.4209 11.2282 7.77467C11.8882 7.09819 12.771 6.72145 13.7142 6.71045C14.6465 6.7022 15.5512 7.06519 16.2167 7.71692C16.8987 8.38515 17.2727 9.27887 17.2727 10.2303C17.2727 11.1708 16.907 12.0535 16.2415 12.719C15.915 13.0471 15.5267 13.3071 15.099 13.4841C14.6713 13.6611 14.2128 13.7516 13.75 13.7502ZM6.86128 10.9563C6.83653 10.7171 6.82278 10.4751 6.82278 10.2303C6.82278 9.79311 6.86403 9.36687 6.94103 8.95163C6.96028 8.85264 6.90803 8.75089 6.81728 8.70964C6.44328 8.5419 6.09953 8.3109 5.80253 8.01941C5.45257 7.68009 5.17718 7.27155 4.99394 6.81985C4.8107 6.36815 4.72363 5.88322 4.73829 5.39599C4.76304 4.51326 5.11779 3.67454 5.73653 3.04206C6.41578 2.34633 7.32877 1.96684 8.29952 1.97784C9.17676 1.98609 10.0238 2.32433 10.6645 2.92381C10.8818 3.1273 11.0688 3.3528 11.2255 3.59479C11.2805 3.68004 11.3877 3.71579 11.4812 3.68279C11.9652 3.51504 12.4767 3.3968 13.002 3.3418C13.156 3.3253 13.244 3.1603 13.1752 3.02281C12.2815 1.25461 10.4555 0.0336443 8.34352 0.000645234C5.29379 -0.0461034 2.7528 2.45357 2.7528 5.49773C2.7528 7.22468 3.54755 8.76464 4.79329 9.77386C3.91879 10.1781 3.11305 10.7363 2.41455 11.4348C0.907563 12.939 0.0550684 14.9245 6.87661e-05 17.0446C-0.000665218 17.074 0.00448282 17.1032 0.0152097 17.1305C0.0259366 17.1579 0.0420252 17.1828 0.0625275 17.2038C0.0830298 17.2248 0.107531 17.2415 0.134588 17.2529C0.161644 17.2643 0.190708 17.2701 0.220067 17.2701H1.76281C1.88106 17.2701 1.98006 17.1766 1.98281 17.0584C2.03506 15.4634 2.6813 13.9702 3.81705 12.8373C4.62554 12.0288 5.61553 11.4678 6.69628 11.1956C6.80353 11.1681 6.87503 11.0663 6.86128 10.9563Z" fill="#152F4E"/>
</svg>
