<svg width="20" height="22" viewBox="0 0 20 22" fill="none" xmlns="http://www.w3.org/2000/svg">
<path d="M2.36 19.5556V19.6956H2.5H17.5H17.64V19.5556V15.8889V15.7489H17.5H2.5H2.36V15.8889V19.5556ZM0.14 21.86V15.8889C0.14 15.2551 0.369042 14.7155 0.832251 14.2626C1.29556 13.8096 1.84892 13.5844 2.5 13.5844H17.5C18.1511 13.5844 18.7044 13.8096 19.1677 14.2626C19.631 14.7155 19.86 15.2551 19.86 15.8889V21.86H0.14ZM6.25 12.0822C4.55683 12.0822 3.11817 11.5003 1.926 10.3346C0.733942 9.16905 0.14 7.76383 0.14 6.11111C0.14 4.45839 0.733942 3.05317 1.926 1.8876C3.11817 0.721923 4.55683 0.14 6.25 0.14H13.75C15.4432 0.14 16.8818 0.721923 18.074 1.8876C19.2661 3.05317 19.86 4.45839 19.86 6.11111C19.86 7.76383 19.2661 9.16905 18.074 10.3346C16.8818 11.5003 15.4432 12.0822 13.75 12.0822H6.25ZM6.25 9.91778H13.75C14.8274 9.91778 15.7482 9.54758 16.5041 8.80843C17.2602 8.06917 17.64 7.16736 17.64 6.11111C17.64 5.05486 17.2602 4.15305 16.5041 3.41379C15.7482 2.67464 14.8274 2.30444 13.75 2.30444H6.25C5.17262 2.30444 4.25182 2.67464 3.49587 3.41379C2.73981 4.15305 2.36 5.05486 2.36 6.11111C2.36 7.16736 2.73981 8.06917 3.49587 8.80843C4.25182 9.54758 5.17262 9.91778 6.25 9.91778ZM7.04275 6.88184C6.83093 7.08896 6.56989 7.19333 6.25 7.19333C5.93011 7.19333 5.66907 7.08896 5.45725 6.88184C5.2456 6.6749 5.14 6.42115 5.14 6.11111C5.14 5.80108 5.2456 5.54733 5.45725 5.34038C5.66907 5.13327 5.93011 5.02889 6.25 5.02889C6.56989 5.02889 6.83093 5.13327 7.04275 5.34038C7.2544 5.54733 7.36 5.80108 7.36 6.11111C7.36 6.42115 7.2544 6.6749 7.04275 6.88184ZM14.5427 6.88184C14.3309 7.08896 14.0699 7.19333 13.75 7.19333C13.4301 7.19333 13.1691 7.08896 12.9573 6.88184C12.7456 6.6749 12.64 6.42115 12.64 6.11111C12.64 5.80108 12.7456 5.54733 12.9573 5.34038C13.1691 5.13327 13.4301 5.02889 13.75 5.02889C14.0699 5.02889 14.3309 5.13327 14.5427 5.34038C14.7544 5.54733 14.86 5.80108 14.86 6.11111C14.86 6.42115 14.7544 6.6749 14.5427 6.88184Z" fill="#152F4E" stroke="white" stroke-width="0.28"/>
</svg>
