<svg width="70" height="71" viewBox="0 0 70 71" fill="none" xmlns="http://www.w3.org/2000/svg">
<path d="M34.967 48.4232C47.148 48.4232 57.0614 38.5099 57.0614 26.3288C57.0614 14.1477 47.148 4.23438 34.967 4.23438C22.7859 4.23438 12.8726 14.1477 12.8726 26.3288C12.8726 38.5099 22.7643 48.4232 34.967 48.4232ZM16.2634 26.3288C16.2634 16.0267 24.6433 7.62521 34.967 7.62521C45.2906 7.62521 53.6705 16.0051 53.6705 26.3288C53.6705 36.6309 45.2906 45.0324 34.967 45.0324C24.6433 45.0324 16.2634 36.6525 16.2634 26.3288Z" fill="#3AB8BC"/>
<path d="M40.2363 33.2838C40.6898 33.2838 41.1218 33.111 41.4458 32.7871C41.7697 32.4631 41.9425 32.0311 41.9425 31.5776C41.9425 31.124 41.7697 30.6921 41.4458 30.3681L36.6727 25.6382V13.6515C36.6727 12.7228 35.9168 11.9453 34.9665 11.9453C34.0162 11.9453 33.2603 12.7012 33.2603 13.6515V27.0421L39.0268 32.7871C39.3508 33.0894 39.7827 33.2838 40.2363 33.2838Z" fill="#3AB8BC"/>
<path d="M68.551 57.9043H64.4258C63.7347 54.967 61.1214 52.8721 58.0761 52.8721C55.0308 52.8721 52.3959 54.967 51.7264 57.9043H41.3811C40.69 54.967 38.0767 52.8721 35.0314 52.8721C31.9861 52.8721 29.3512 54.967 28.6817 57.9043H18.3148C17.6237 54.967 15.0104 52.8721 11.9651 52.8721C8.91983 52.8721 6.28492 54.967 5.61539 57.9043H1.49024C0.669527 57.9043 0 58.5738 0 59.3946C0 60.2153 0.669527 60.8848 1.49024 60.8848H5.5722C6.26332 63.8221 8.87664 65.9171 11.9219 65.9171C14.9672 65.9171 17.6021 63.8221 18.2716 60.8848H28.6385C29.3296 63.8221 31.9429 65.9171 34.9882 65.9171C38.0335 65.9171 40.6684 63.8221 41.3379 60.8848H51.6832C52.3743 63.8221 54.9876 65.9171 58.0329 65.9171C61.0782 65.9171 63.7131 63.8221 64.3826 60.8848H68.5078C69.3285 60.8848 69.998 60.2153 69.998 59.3946C70.0412 58.5738 69.3717 57.9043 68.551 57.9043ZM61.2942 60.8848C60.711 62.1159 59.4584 62.9582 58.0761 62.9582C56.6723 62.9582 55.4196 62.1375 54.8581 60.8848H61.2942ZM61.2942 57.9043H54.8581C55.4412 56.6733 56.6939 55.8309 58.0761 55.8309C59.48 55.8309 60.7326 56.6517 61.2942 57.9043ZM38.2495 60.8848C37.6663 62.1159 36.4137 62.9582 35.0314 62.9582C33.6276 62.9582 32.3749 62.1375 31.8134 60.8848H38.2495ZM38.2495 57.9043H31.7918C32.3749 56.6733 33.6276 55.8309 35.0098 55.8309C36.4137 55.8309 37.6663 56.6517 38.2495 57.9043ZM15.1616 60.8848C14.5784 62.1159 13.3258 62.9582 11.9435 62.9582C10.5397 62.9582 9.28699 62.1375 8.72546 60.8848H15.1616ZM15.1616 57.9043H8.72546C9.30859 56.6733 10.5613 55.8309 11.9435 55.8309C13.3258 55.8309 14.5784 56.6517 15.1616 57.9043Z" fill="#3AB8BC"/>
</svg>
