<?xml version="1.0" encoding="utf-8"?>
<!-- Generator: Adobe Illustrator 23.1.0, SVG Export Plug-In . SVG Version: 6.00 Build 0)  -->
<svg version="1.1" id="Capa_1" xmlns="http://www.w3.org/2000/svg" xmlns:xlink="http://www.w3.org/1999/xlink" x="0px" y="0px"
	 viewBox="0 0 50.3 50.3" style="enable-background:new 0 0 50.3 50.3;" xml:space="preserve">
<style type="text/css">
	.st0{fill:#3AB8BC;}
	.st1{fill:#FFFFFF;}
</style>
<path class="st0" d="M41.2,0.2h-32c-5,0-9,4-9,9v32c0,5,4,9,9,9h32c5,0,9-4,9-9v-32C50.2,4.2,46.1,0.2,41.2,0.2z"/>
<g>
	<path class="st1" d="M23.1,40.2c-3.3,0-6.5,0-9.8,0c-1.9,0-3.2-1.3-3.2-3.2c0-6.5,0-13.1,0-19.6c0-1.9,1.3-3.2,3.2-3.2
		c3.9,0,7.8,0,11.7,0c0.8,0,1.3,0.7,1,1.3c-0.2,0.4-0.5,0.6-1,0.7c-0.6,0-1.1,0-1.7,0c-3.4,0-6.7,0-10.1,0c-0.8,0-1.2,0.4-1.2,1.2
		c0,6.5,0,13.1,0,19.7c0,0.8,0.4,1.2,1.2,1.2c6.5,0,13.1,0,19.6,0c0.8,0,1.2-0.4,1.2-1.2c0-3.9,0-7.8,0-11.6c0-0.2,0-0.3,0-0.5
		c0.1-0.5,0.6-0.8,1-0.7c0.5,0,0.9,0.4,0.9,0.9c0,0.1,0,0.1,0,0.2c0,3.9,0,7.9,0,11.8c0,1.4-0.9,2.6-2.2,3c-0.3,0.1-0.6,0.1-1,0.1
		C29.6,40.2,26.4,40.2,23.1,40.2z"/>
</g>
<g>
	<path class="st1" d="M36.6,12.2c-1.7,0-3.4,0-5.1,0c-0.5,0-0.9,0-1.4,0c-0.6,0-1.1-0.4-1.1-1c0-0.6,0.4-1,1-1c3,0,5.9,0,8.9,0
		c0.6,0,1,0.4,1,1c0,3,0,6,0,8.9c0,0.6-0.4,1-1,1c-0.6,0-1-0.4-1-1.1c0-2,0-4.1,0-6.1c0-0.1,0-0.2,0-0.4c-0.1,0.1-0.2,0.2-0.3,0.3
		c-4.6,4.6-9.2,9.2-13.8,13.8c-0.6,0.6-1.1,0.6-1.6,0.2c-0.5-0.4-0.4-1,0.2-1.6c4.6-4.6,9.2-9.2,13.8-13.8
		C36.4,12.4,36.5,12.4,36.6,12.2C36.6,12.2,36.6,12.2,36.6,12.2z"/>
</g>
</svg>
