<svg width="99" height="99" viewBox="0 0 99 99" fill="none" xmlns="http://www.w3.org/2000/svg">
<circle cx="49.5" cy="49.5" r="49.5" fill="#FFD658"/>
<path d="M40.0072 49.1969L36.5079 48.1918L39.151 21.7981H66.252V25.9675H42.9481L41.0496 44.2085C41.9926 43.5384 43.3576 42.8808 45.1445 42.2355C46.9562 41.5654 48.9912 41.2304 51.2496 41.2304C53.657 41.2304 55.8409 41.6399 57.8015 42.4589C59.7869 43.253 61.487 44.4195 62.9016 45.9582C64.3162 47.472 65.4081 49.3086 66.1775 51.4677C66.9468 53.602 67.3315 56.0217 67.3315 58.7269C67.3315 61.3327 67.0089 63.7276 66.3636 65.9116C65.7184 68.0956 64.7381 70.0065 63.4227 71.6445C62.1074 73.2576 60.4322 74.5109 58.3971 75.4044C56.3621 76.2978 53.9424 76.7445 51.138 76.7445C48.9788 76.7445 46.9438 76.4467 45.0328 75.8511C43.1467 75.2307 41.4591 74.3 39.97 73.0591C38.4809 71.8182 37.2649 70.2547 36.3218 68.3686C35.4035 66.4824 34.8327 64.2736 34.6094 61.7422H38.8904C39.1882 64.1744 39.8459 66.2218 40.8634 67.8846C41.881 69.5474 43.2459 70.8007 44.9584 71.6445C46.6956 72.4883 48.7555 72.9102 51.138 72.9102C53.0737 72.9102 54.7614 72.6 56.2008 71.9795C57.665 71.3591 58.8811 70.4532 59.849 69.262C60.8417 68.0459 61.5862 66.5693 62.0826 64.832C62.6037 63.07 62.8643 61.0597 62.8643 58.8013C62.8643 56.8655 62.5913 55.0911 62.0454 53.4779C61.4994 51.84 60.6928 50.4129 59.6256 49.1969C58.5833 47.956 57.2928 47.0005 55.7541 46.3304C54.2154 45.6604 52.4533 45.3253 50.4679 45.3253C47.8868 45.3253 45.827 45.6728 44.2883 46.3677C42.7744 47.0626 41.3474 48.0056 40.0072 49.1969Z" fill="#152F4E"/>
</svg>
