<svg width="99" height="99" viewBox="0 0 99 99" fill="none" xmlns="http://www.w3.org/2000/svg">
<circle cx="49.5" cy="49.5" r="49.5" fill="#FFD658"/>
<path d="M67.406 72.1657V76H33.4926V72.5379L51.2496 52.3984C53.4584 49.8918 55.2205 47.6954 56.5358 45.8093C57.8512 43.8983 58.7942 42.1611 59.365 40.5975C59.9607 39.0092 60.2585 37.4705 60.2585 35.9814C60.2585 33.7975 59.8242 31.8741 58.9555 30.2113C58.1117 28.5485 56.846 27.2456 55.1584 26.3025C53.4708 25.3595 51.3861 24.8879 48.9044 24.8879C46.4226 24.8879 44.2635 25.4215 42.427 26.4887C40.5904 27.5558 39.1758 29.0449 38.1831 30.9559C37.2152 32.842 36.7313 34.9887 36.7313 37.3961H32.3013C32.3013 34.4179 32.959 31.688 34.2743 29.2062C35.6145 26.7244 37.5255 24.7514 40.0072 23.2872C42.489 21.7981 45.4547 21.0536 48.9044 21.0536C52.1803 21.0536 54.9971 21.6368 57.3548 22.8032C59.7125 23.9449 61.5242 25.5952 62.7899 27.7544C64.0804 29.9135 64.7257 32.5194 64.7257 35.572C64.7257 37.2099 64.4279 38.8603 63.8322 40.5231C63.2614 42.1859 62.4673 43.8487 61.4497 45.5114C60.457 47.1494 59.3154 48.775 58.0249 50.3881C56.7592 52.0013 55.4314 53.5896 54.0416 55.1531L38.9277 72.1657H67.406Z" fill="#152F4E"/>
</svg>
