<svg width="99" height="99" viewBox="0 0 99 99" fill="none" xmlns="http://www.w3.org/2000/svg">
<circle cx="49.5" cy="49.5" r="49.5" fill="#FFD658"/>
<path d="M43.3948 46.4421H47.9365C50.7161 46.4421 53.0365 45.9706 54.8979 45.0275C56.784 44.0596 58.1986 42.7815 59.1417 41.1932C60.1096 39.6048 60.5935 37.8428 60.5935 35.907C60.5935 33.723 60.184 31.8121 59.365 30.1741C58.5461 28.5113 57.2928 27.2208 55.6052 26.3025C53.9424 25.3595 51.808 24.8879 49.2022 24.8879C46.919 24.8879 44.8839 25.3346 43.097 26.2281C41.3102 27.1215 39.8955 28.3996 38.8532 30.0624C37.8109 31.7252 37.2897 33.7106 37.2897 36.0187H32.8597C32.8597 33.0654 33.567 30.4719 34.9816 28.2383C36.3962 25.9799 38.3444 24.2179 40.8262 22.9521C43.308 21.6864 46.1 21.0536 49.2022 21.0536C52.4037 21.0536 55.1833 21.6368 57.5409 22.8032C59.9234 23.9697 61.7599 25.6697 63.0505 27.9033C64.3658 30.1369 65.0235 32.8544 65.0235 36.0559C65.0235 37.6939 64.6636 39.307 63.9439 40.8954C63.249 42.4837 62.2067 43.9231 60.8169 45.2136C59.4271 46.4793 57.7023 47.4969 55.6424 48.2662C53.5825 49.0356 51.1876 49.4202 48.4577 49.4202H43.3948V46.4421ZM43.3948 50.2764V47.3355H48.4577C51.5599 47.3355 54.2154 47.6954 56.4241 48.4151C58.6329 49.11 60.4446 50.1027 61.8592 51.3932C63.2986 52.6589 64.3534 54.1356 65.0235 55.8232C65.6936 57.5108 66.0286 59.3225 66.0286 61.2583C66.0286 63.7401 65.6191 65.9364 64.8001 67.8474C63.9811 69.7583 62.8147 71.3839 61.3008 72.7241C59.8118 74.0394 58.0497 75.0445 56.0146 75.7394C54.0044 76.4095 51.7956 76.7445 49.3883 76.7445C47.2044 76.7445 45.07 76.4219 42.9854 75.7766C40.9255 75.1314 39.0642 74.1759 37.4014 72.9102C35.7634 71.6197 34.4605 70.0065 33.4926 68.0707C32.5247 66.1101 32.0407 63.8517 32.0407 61.2955H36.4707C36.4707 63.5787 37.0167 65.6014 38.1087 67.3634C39.2007 69.1007 40.7145 70.4657 42.6503 71.4584C44.6109 72.4263 46.8569 72.9102 49.3883 72.9102C51.9445 72.9102 54.1285 72.4759 55.9402 71.6073C57.7767 70.7138 59.1789 69.4109 60.1468 67.6985C61.1147 65.9861 61.5986 63.889 61.5986 61.4072C61.5986 58.8013 61.0154 56.6794 59.849 55.0414C58.7074 53.4035 57.1066 52.1998 55.0468 51.4305C53.0117 50.6611 50.6416 50.2764 47.9365 50.2764H43.3948Z" fill="#152F4E"/>
</svg>
