<svg width="99" height="99" viewBox="0 0 99 99" fill="none" xmlns="http://www.w3.org/2000/svg">
<circle cx="49.5" cy="49.5" r="49.5" fill="#FFD658"/>
<path d="M59.1045 21.3886H59.7373V25.2974H59.1045C55.6796 25.2974 52.627 25.8558 49.9467 26.9726C47.2912 28.0894 45.0452 29.7026 43.2087 31.8121C41.397 33.8968 40.0196 36.4282 39.0766 39.4063C38.1335 42.3844 37.662 45.7224 37.662 49.4202V56.9028C37.662 59.4094 37.997 61.6554 38.6671 63.6408C39.3371 65.6014 40.2678 67.2766 41.4591 68.6664C42.6503 70.0562 44.0401 71.1109 45.6284 71.8306C47.2168 72.5503 48.9292 72.9102 50.7657 72.9102C52.5774 72.9102 54.203 72.5379 55.6424 71.7934C57.0818 71.0489 58.2979 70.0065 59.2906 68.6664C60.3081 67.3262 61.0775 65.7875 61.5986 64.0503C62.1446 62.2882 62.4176 60.4021 62.4176 58.3918C62.4176 56.4809 62.1694 54.6816 61.6731 52.994C61.2015 51.2816 60.4694 49.7677 59.4767 48.4523C58.484 47.137 57.2431 46.1071 55.7541 45.3625C54.265 44.618 52.5154 44.2457 50.5051 44.2457C48.2219 44.2457 46.0876 44.7669 44.1021 45.8093C42.1167 46.8516 40.4912 48.2414 39.2255 49.9786C37.9846 51.7159 37.3269 53.6144 37.2525 55.6743L34.6838 55.6371C34.8576 53.3042 35.3911 51.2071 36.2846 49.3458C37.178 47.4596 38.3568 45.8589 39.8211 44.5436C41.3102 43.2034 43.0102 42.1859 44.9211 41.491C46.8569 40.7713 48.9416 40.4114 51.1752 40.4114C53.7811 40.4114 56.0519 40.8829 57.9877 41.826C59.9483 42.7691 61.5738 44.072 62.8643 45.7348C64.1797 47.3728 65.16 49.2713 65.8052 51.4305C66.4753 53.5648 66.8104 55.8232 66.8104 58.2057C66.8104 60.8116 66.4381 63.2437 65.6936 65.5021C64.9738 67.7357 63.9067 69.6963 62.4921 71.3839C61.1023 73.0715 59.4147 74.3868 57.4293 75.3299C55.4687 76.273 53.2475 76.7445 50.7657 76.7445C48.0358 76.7445 45.5912 76.2234 43.4321 75.181C41.2729 74.1387 39.424 72.6992 37.8853 70.8627C36.3714 69.0262 35.205 66.9167 34.386 64.5342C33.5918 62.1269 33.1948 59.5583 33.1948 56.8283V52.0633C33.1948 47.4472 33.7283 43.2654 34.7955 39.518C35.8627 35.7457 37.4634 32.507 39.5977 29.8018C41.7569 27.0967 44.4496 25.0244 47.6759 23.585C50.927 22.1208 54.7365 21.3886 59.1045 21.3886Z" fill="#152F4E"/>
</svg>
