<svg width="22" height="22" viewBox="0 0 22 22" fill="none" xmlns="http://www.w3.org/2000/svg">
<path d="M18.7 3.201C16.643 1.133 13.904 0 10.989 0C4.983 0 0.0880002 4.895 0.0880002 10.901C0.0880002 12.826 0.594 14.696 1.54 16.346L0 22L5.775 20.482C7.37 21.351 9.163 21.813 10.989 21.813C16.995 21.813 21.89 16.918 21.89 10.912C21.89 7.997 20.757 5.258 18.7 3.201ZM10.989 19.965C9.361 19.965 7.766 19.525 6.369 18.7L6.039 18.502L2.607 19.404L3.52 16.06L3.3 15.719C2.398 14.278 1.914 12.606 1.914 10.901C1.914 5.907 5.984 1.837 10.978 1.837C13.398 1.837 15.675 2.783 17.38 4.499C19.096 6.215 20.031 8.492 20.031 10.912C20.053 15.906 15.983 19.965 10.989 19.965ZM15.961 13.189C15.686 13.057 14.344 12.397 14.102 12.298C13.849 12.21 13.673 12.166 13.486 12.43C13.299 12.705 12.782 13.321 12.628 13.497C12.474 13.684 12.309 13.706 12.034 13.563C11.759 13.431 10.879 13.134 9.845 12.21C9.031 11.484 8.492 10.593 8.327 10.318C8.173 10.043 8.305 9.9 8.448 9.757C8.569 9.636 8.723 9.438 8.855 9.284C8.987 9.13 9.042 9.009 9.13 8.833C9.218 8.646 9.174 8.492 9.108 8.36C9.042 8.228 8.492 6.886 8.272 6.336C8.052 5.808 7.821 5.874 7.656 5.863C7.491 5.863 7.315 5.863 7.128 5.863C6.941 5.863 6.655 5.929 6.402 6.204C6.16 6.479 5.456 7.139 5.456 8.481C5.456 9.823 6.435 11.121 6.567 11.297C6.699 11.484 8.492 14.234 11.22 15.411C11.869 15.697 12.375 15.862 12.771 15.983C13.42 16.192 14.014 16.159 14.487 16.093C15.015 16.016 16.104 15.433 16.324 14.795C16.555 14.157 16.555 13.618 16.478 13.497C16.401 13.376 16.236 13.321 15.961 13.189Z" fill="#152F4E"/>
</svg>
